<svg width="174" height="54" viewBox="0 0 174 54" fill="none" xmlns="http://www.w3.org/2000/svg">
<path d="M26.9579 0C26.0805 0 25.2029 0.179662 24.5233 0.538986L2.82203 12.0093C1.46244 12.728 1.46244 13.8643 2.82203 14.583L24.5233 26.0533C25.8829 26.772 28.0328 26.772 29.3922 26.0533L51.0934 14.583C52.453 13.8645 52.453 12.728 51.0934 12.0094L29.3922 0.539116C28.7124 0.179532 27.8351 0 26.9579 0ZM26.8408 6.8944C28.1213 6.90699 29.2726 7.17505 30.2945 7.6982C30.9934 8.05623 31.4513 8.46449 31.6677 8.92338C31.877 9.37864 31.8893 9.97877 31.7046 10.7232L31.4773 11.464C31.3267 11.994 31.2955 12.3753 31.3836 12.6076C31.4645 12.8366 31.6653 13.0331 31.9862 13.1975L32.4678 13.4439L27.7462 15.861L27.2216 15.5927C26.6365 15.2933 26.2635 14.955 26.1016 14.5775C25.9329 14.1965 25.961 13.5906 26.186 12.7595L26.4025 12.0133C26.5285 11.569 26.5408 11.2046 26.4395 10.9206C26.3467 10.6319 26.1363 10.4035 25.8081 10.2355C25.3088 9.9798 24.7105 9.88816 24.0138 9.95994C23.3097 10.0282 22.5829 10.2544 21.8331 10.6382C21.1267 10.9998 20.4853 11.4524 19.9081 11.9961C19.3239 12.5364 18.8227 13.1545 18.404 13.8508L15.0441 12.1306C15.7996 11.4374 16.5419 10.8311 17.2711 10.3115C18.0005 9.79222 18.7705 9.3249 19.5814 8.90949C21.709 7.82036 23.6876 7.17259 25.517 6.96657C25.9728 6.91413 26.4142 6.88998 26.8411 6.89427L26.8408 6.8944ZM34.0517 14.2548L37.8613 16.2051L33.1397 18.6223L29.33 16.6721L34.0517 14.2548ZM1.37294 16.7558C0.555626 16.7357 0 17.3187 0 18.3499V38.821C0 40.2557 1.07545 41.9577 2.43504 42.6752L23.309 53.6896C24.6686 54.4069 25.7441 53.8396 25.7441 52.4051V31.9336C25.7441 30.4989 24.6686 28.7973 23.309 28.0797L2.43504 17.0654C2.05288 16.8636 1.69273 16.7633 1.37294 16.7556V16.7558ZM52.6271 16.7561C52.3074 16.7639 51.9475 16.8638 51.5652 17.0657L30.6906 28.08C29.331 28.7974 28.2555 30.4994 28.2555 31.9341V52.4057C28.2555 53.8402 29.331 54.4072 30.6906 53.6896L51.5654 42.6757C52.925 41.9582 54 40.2565 54 38.8218V18.3502C54 17.3192 53.4445 16.7363 52.6271 16.7563V16.7561ZM6.94596 25.0319C7.87693 25.2093 8.72721 25.4263 9.49664 25.6827C10.2659 25.9392 11.0087 26.2561 11.7243 26.6336C13.6014 27.6241 15.0324 28.7527 16.0173 30.0194C17.0021 31.2786 17.4945 32.6216 17.4945 34.0488C17.4945 34.7809 17.3446 35.3591 17.0444 35.7836C16.7444 36.2006 16.2326 36.5508 15.5095 36.8343L14.7708 37.0836C14.2477 37.2708 13.9051 37.4637 13.7436 37.6625C13.5821 37.8536 13.5014 38.1171 13.5014 38.4534V38.9577L9.33526 36.7596V36.2104C9.33526 35.5977 9.46198 35.1231 9.716 34.7864C9.96987 34.4421 10.5048 34.1192 11.3202 33.8171L12.059 33.5567C12.4975 33.3996 12.8168 33.202 13.0168 32.9638C13.2242 32.7298 13.3282 32.4409 13.3282 32.0972C13.3282 31.5744 13.1435 31.0697 12.7741 30.5835C12.4048 30.0897 11.8895 29.6684 11.2277 29.3192C10.6045 28.9905 9.93123 28.7623 9.20796 28.6348C8.48484 28.4998 7.73075 28.472 6.94596 28.5511V25.0319ZM45.2388 26.1493C45.4551 26.1493 45.6554 26.1707 45.8401 26.2132C46.8249 26.4334 47.3173 27.2569 47.3173 28.6841C47.3173 29.4163 47.1673 30.1528 46.8672 30.8939C46.5672 31.6274 46.0554 32.5175 45.3323 33.5639L44.5936 34.5926C44.0705 35.3319 43.7279 35.8859 43.5664 36.2551C43.4049 36.6166 43.3242 36.9656 43.3242 37.3018V37.8061L39.1581 40.0041V39.455C39.1581 38.8423 39.2851 38.2335 39.5388 37.6289C39.7931 37.0168 40.3276 36.1296 41.143 34.9672L41.8818 33.9274C42.3203 33.3074 42.6396 32.7729 42.8396 32.3237C43.047 31.8704 43.151 31.4719 43.151 31.1281C43.151 30.6052 42.9663 30.2955 42.5972 30.1989C42.2279 30.0951 41.7122 30.2173 41.0505 30.5663C40.4273 30.8951 39.7543 31.3776 39.0311 32.0131C38.3079 32.6414 37.5538 33.4088 36.7691 34.3159V30.7967C37.7 29.9919 38.55 29.3116 39.3192 28.7563C40.0887 28.201 40.8315 27.7347 41.5468 27.3573C43.0723 26.5525 44.3029 26.1498 45.2391 26.1491L45.2388 26.1493ZM9.33511 38.4186L13.5014 40.6163V44.6063L9.33526 42.4085V38.4187L9.33511 38.4186ZM43.3242 39.4649V43.4547L39.1581 45.6524V41.6629L43.3242 39.4649Z" fill="black"/>
<path d="M62.7699 37V16.6364H70.804C72.3419 16.6364 73.6544 16.9115 74.7415 17.4616C75.8352 18.0052 76.6671 18.7775 77.2372 19.7784C77.8139 20.7727 78.1023 21.9427 78.1023 23.2884C78.1023 24.6406 77.8106 25.804 77.2273 26.7784C76.6439 27.7462 75.7988 28.4886 74.6918 29.0057C73.5914 29.5227 72.259 29.7812 70.6946 29.7812H65.3153V26.321H69.9986C70.8205 26.321 71.5033 26.2083 72.0469 25.983C72.5904 25.7576 72.9948 25.4195 73.2599 24.9688C73.5317 24.518 73.6676 23.9579 73.6676 23.2884C73.6676 22.6122 73.5317 22.0421 73.2599 21.5781C72.9948 21.1141 72.5871 20.7628 72.0369 20.5241C71.4934 20.2789 70.8073 20.1562 69.9787 20.1562H67.0753V37H62.7699ZM73.767 27.733L78.8281 37H74.0753L69.1236 27.733H73.767ZM85.4205 37.2884C84.446 37.2884 83.5777 37.1193 82.8153 36.7812C82.053 36.4366 81.4498 35.9295 81.0057 35.2599C80.5682 34.5838 80.3494 33.742 80.3494 32.7344C80.3494 31.8859 80.5052 31.1733 80.8168 30.5966C81.1283 30.0199 81.5526 29.5559 82.0895 29.2045C82.6264 28.8532 83.2363 28.5881 83.919 28.4091C84.6084 28.2301 85.331 28.1042 86.0866 28.0312C86.9749 27.9384 87.6908 27.8523 88.2344 27.7727C88.7779 27.6866 89.1723 27.5606 89.4176 27.3949C89.6629 27.2292 89.7855 26.9839 89.7855 26.6591V26.5994C89.7855 25.9697 89.5866 25.4825 89.1889 25.1378C88.7978 24.7931 88.241 24.6207 87.5185 24.6207C86.7562 24.6207 86.1496 24.7898 85.6989 25.1278C85.2481 25.4593 84.9498 25.8769 84.804 26.3807L80.8864 26.0625C81.0852 25.1345 81.4763 24.3324 82.0597 23.6562C82.643 22.9735 83.3954 22.4498 84.3168 22.0852C85.2448 21.714 86.3187 21.5284 87.5384 21.5284C88.3868 21.5284 89.1989 21.6278 89.9744 21.8267C90.7566 22.0256 91.4493 22.3338 92.0526 22.7514C92.6624 23.169 93.143 23.706 93.4943 24.3622C93.8456 25.0118 94.0213 25.7907 94.0213 26.6989V37H90.0043V34.8821H89.8849C89.6397 35.3594 89.3116 35.7803 88.9006 36.1449C88.4896 36.5028 87.9957 36.7846 87.419 36.9901C86.8423 37.1889 86.1761 37.2884 85.4205 37.2884ZM86.6335 34.3651C87.2566 34.3651 87.8068 34.2424 88.2841 33.9972C88.7614 33.7453 89.1359 33.4072 89.4077 32.983C89.6795 32.5587 89.8153 32.0781 89.8153 31.5412V29.9205C89.6828 30.0066 89.5005 30.0862 89.2685 30.1591C89.0431 30.2254 88.7879 30.2884 88.5028 30.348C88.2178 30.401 87.9328 30.4508 87.6477 30.4972C87.3627 30.5369 87.1042 30.5734 86.8722 30.6065C86.375 30.6795 85.9408 30.7955 85.5696 30.9545C85.1984 31.1136 84.91 31.3291 84.7045 31.6009C84.4991 31.866 84.3963 32.1974 84.3963 32.5952C84.3963 33.1719 84.6051 33.6127 85.0227 33.9176C85.447 34.2159 85.9839 34.3651 86.6335 34.3651ZM101.543 28.1705V37H97.3075V21.7273H101.344V24.4219H101.523C101.862 23.5336 102.428 22.831 103.224 22.3139C104.019 21.7902 104.984 21.5284 106.117 21.5284C107.178 21.5284 108.103 21.7604 108.891 22.2244C109.68 22.6884 110.293 23.3513 110.731 24.2131C111.168 25.0682 111.387 26.089 111.387 27.2756V37H107.151V28.0312C107.158 27.0966 106.919 26.3674 106.435 25.8438C105.951 25.3134 105.285 25.0483 104.437 25.0483C103.867 25.0483 103.363 25.1709 102.925 25.4162C102.495 25.6615 102.156 26.0194 101.911 26.4901C101.673 26.9541 101.55 27.5142 101.543 28.1705ZM120.353 37.2486C119.193 37.2486 118.143 36.9503 117.201 36.3537C116.267 35.7505 115.524 34.8655 114.974 33.6989C114.431 32.5256 114.159 31.0871 114.159 29.3835C114.159 27.6335 114.44 26.1785 115.004 25.0185C115.567 23.8518 116.316 22.9801 117.251 22.4034C118.192 21.8201 119.223 21.5284 120.343 21.5284C121.199 21.5284 121.911 21.6742 122.481 21.9659C123.058 22.2509 123.522 22.6089 123.873 23.0398C124.231 23.464 124.503 23.8816 124.689 24.2926H124.818V16.6364H129.044V37H124.868V34.554H124.689C124.49 34.9782 124.208 35.3991 123.843 35.8168C123.485 36.2277 123.018 36.5691 122.441 36.8409C121.871 37.1127 121.175 37.2486 120.353 37.2486ZM121.696 33.8778C122.378 33.8778 122.955 33.6922 123.426 33.321C123.903 32.9432 124.268 32.4162 124.52 31.7401C124.778 31.0639 124.907 30.2718 124.907 29.3636C124.907 28.4555 124.781 27.6667 124.529 26.9972C124.278 26.3277 123.913 25.8106 123.436 25.446C122.958 25.0814 122.378 24.8991 121.696 24.8991C121 24.8991 120.413 25.0881 119.936 25.4659C119.458 25.8437 119.097 26.3674 118.852 27.0369C118.607 27.7064 118.484 28.482 118.484 29.3636C118.484 30.2519 118.607 31.0374 118.852 31.7202C119.104 32.3963 119.465 32.9266 119.936 33.3111C120.413 33.6889 121 33.8778 121.696 33.8778ZM139.427 37.2983C137.882 37.2983 136.547 36.9702 135.42 36.3139C134.299 35.651 133.434 34.7296 132.825 33.5497C132.215 32.3632 131.91 30.9877 131.91 29.4233C131.91 27.8456 132.215 26.4669 132.825 25.2869C133.434 24.1004 134.299 23.179 135.42 22.5227C136.547 21.8598 137.882 21.5284 139.427 21.5284C140.971 21.5284 142.304 21.8598 143.424 22.5227C144.551 23.179 145.419 24.1004 146.029 25.2869C146.639 26.4669 146.944 27.8456 146.944 29.4233C146.944 30.9877 146.639 32.3632 146.029 33.5497C145.419 34.7296 144.551 35.651 143.424 36.3139C142.304 36.9702 140.971 37.2983 139.427 37.2983ZM139.447 34.017C140.149 34.017 140.736 33.8182 141.207 33.4205C141.677 33.0161 142.032 32.4659 142.271 31.7699C142.516 31.0739 142.638 30.2817 142.638 29.3935C142.638 28.5052 142.516 27.7131 142.271 27.017C142.032 26.321 141.677 25.7708 141.207 25.3665C140.736 24.9621 140.149 24.7599 139.447 24.7599C138.737 24.7599 138.141 24.9621 137.657 25.3665C137.18 25.7708 136.818 26.321 136.573 27.017C136.335 27.7131 136.215 28.5052 136.215 29.3935C136.215 30.2817 136.335 31.0739 136.573 31.7699C136.818 32.4659 137.18 33.0161 137.657 33.4205C138.141 33.8182 138.737 34.017 139.447 34.017ZM149.698 37V21.7273H153.735V24.4219H153.914C154.232 23.527 154.763 22.821 155.505 22.304C156.247 21.7869 157.136 21.5284 158.17 21.5284C159.217 21.5284 160.109 21.7902 160.844 22.3139C161.58 22.831 162.071 23.5336 162.316 24.4219H162.475C162.787 23.5469 163.35 22.8475 164.165 22.3239C164.987 21.7936 165.959 21.5284 167.079 21.5284C168.504 21.5284 169.661 21.9825 170.549 22.8906C171.444 23.7921 171.891 25.0715 171.891 26.7287V37H167.665V27.5639C167.665 26.7154 167.44 26.0791 166.989 25.6548C166.539 25.2306 165.975 25.0185 165.299 25.0185C164.53 25.0185 163.93 25.2637 163.499 25.7543C163.068 26.2382 162.853 26.8778 162.853 27.6733V37H158.746V27.4744C158.746 26.7254 158.531 26.1288 158.1 25.6847C157.676 25.2405 157.116 25.0185 156.42 25.0185C155.949 25.0185 155.525 25.1378 155.147 25.3764C154.776 25.6084 154.481 25.9366 154.262 26.3608C154.043 26.7784 153.934 27.2689 153.934 27.8324V37H149.698Z" fill="black"/>
</svg>
